# xmcd
#
# Track frame offsets:
#	150
#	16092
#	30034
#	42647
#	53685
#	66274
#	82050
#	95744
#	109180
#	124307
#	134833
#	154570
#	173018
#	193380
#	210501
#	218446
#	232120
#	244792
#	261588
#
# Disc length: 3710 seconds
#
# Revision: 0
# Processed by: cddbd v1.4PL0 Copyright (c) Steve Scherf et al.
# Submitted via: audiograbber 1.80
#
DISCID=140e7c13
DTITLE=Various Artist - Hity z naseho saloonu
DYEAR=1900
DGENRE=
TTITLE0=Vera Martinova - Dam si jedno blues
TTITLE1=Jaromir Nohavica a kapela - Jdou po mne, jdou
TTITLE2=Kamelot - Zeme antilop
TTITLE3=Tri sestry - Pijanovka
TTITLE4=Pavet Dobes - St. Loucka blues
TTITLE5=Sarka Rezkova - Cekam tvuj dopis
TTITLE6=Samson a jeho parta - Hloupej
TTITLE7=Pavlina Jisova a Weekend - Mokry blues
TTITLE8=Fesaci - Leta jdou
TTITLE9=Kabat - Colorado
TTITLE10=Sarka Rezkova - Boruvkova
TTITLE11=Pavel Bobek - Nocni dest jde Georgii
TTITLE12=Radek Tomasek - Zadna jina
TTITLE13=Lampa a Kamelot - Vyhasly ohen
TTITLE14=Hop Trop - Potvory
TTITLE15=Pavel Dobes - Sedeli jsme v zadni lavici
TTITLE16=Fesaci - Blbej den
TTITLE17=Alkehol - Jo, tresne zrali
TTITLE18=Slapeto - Jo, Marta je Marta
EXTD=
EXTT0=
EXTT1=
EXTT2=
EXTT3=
EXTT4=
EXTT5=
EXTT6=
EXTT7=
EXTT8=
EXTT9=
EXTT10=
EXTT11=
EXTT12=
EXTT13=
EXTT14=
EXTT15=
EXTT16=
EXTT17=
EXTT18=
PLAYORDER=
